<?xml version="1.0" encoding="UTF-8"?>
<svg xmlns="http://www.w3.org/2000/svg" xmlns:xlink="http://www.w3.org/1999/xlink" width="400px" height="px" viewBox="0 0 400 266" version="1.1">
<g id="surface1">
<path style=" stroke:none;fill-rule:nonzero;fill:rgb(0%,16.862746%,39.215687%);fill-opacity:1;" d="M 391.199219 0.0078125 C 385.03125 0.203125 386.980469 1.984375 373.644531 5.273438 C 360.179688 8.589844 343.730469 7.570312 329.230469 13.664062 C 285.945312 31.84375 277.261719 93.984375 237.910156 116.242188 C 208.496094 132.882812 178.816406 134.210938 152.136719 142.582031 C 134.601562 148.089844 115.421875 159.382812 99.535156 173.09375 C 87.207031 183.738281 86.882812 193.101562 74 206.453125 C 60.21875 220.734375 19.226562 206.695312 0.648438 228.554688 C 6.632812 234.613281 9.257812 236.3125 21.050781 234.738281 C 18.609375 239.375 4.214844 243.277344 7.035156 250.097656 C 10 257.273438 44.796875 262.136719 76.429688 243.011719 C 91.160156 234.101562 102.894531 221.261719 125.835938 218.199219 C 155.527344 214.234375 189.730469 220.738281 224.097656 225.703125 C 219.003906 240.921875 208.769531 251.042969 200.574219 263.164062 C 198.035156 265.902344 205.671875 266.207031 214.382812 264.554688 C 230.054688 260.671875 241.347656 257.546875 253.175781 250.652344 C 267.703125 242.183594 269.90625 220.464844 287.734375 215.765625 C 297.664062 231.054688 324.683594 234.667969 341.445312 222.4375 C 326.734375 218.265625 322.667969 186.910156 327.636719 173.09375 C 332.335938 160.011719 336.984375 139.09375 341.722656 121.804688 C 346.808594 103.234375 348.683594 79.832031 354.835938 70.375 C 364.097656 56.144531 374.328125 51.257812 383.210938 43.234375 C 392.09375 35.210938 400.222656 27.398438 399.957031 9.039062 C 399.871094 3.125 396.816406 -0.171875 391.199219 0.0078125 Z M 391.199219 0.0078125 "/>
<path style=" stroke:none;fill-rule:nonzero;fill:rgb(100%,100%,100%);fill-opacity:1;" d="M 13.425781 248.789062 C 35.953125 252.019531 49.652344 248.789062 67.742188 240.933594 C 83.132812 234.246094 97.996094 220.464844 116.171875 214.621094 C 142.867188 206.046875 172.136719 214.632812 200.671875 216.347656 C 207.621094 216.765625 214.527344 216.769531 221.339844 216.027344 C 231.96875 209.484375 231.75 185.007812 242.097656 182.765625 C 241.792969 217.105469 227.738281 237.679688 213.035156 257.601562 C 244.019531 252.121094 262.558594 234.175781 275.082031 210.203125 C 278.878906 202.9375 282.125 195.117188 284.992188 186.921875 C 289.425781 190.332031 286.914062 200.703125 289.144531 206.324219 C 310.484375 194.417969 322.703125 167.25 330.796875 139.769531 C 340.15625 107.964844 343.988281 75.761719 350.027344 66.351562 C 355.921875 57.167969 365.09375 51.507812 373.464844 45.625 C 382.976562 38.941406 391.460938 31.972656 392.925781 19.234375 C 382.894531 18.304688 380.574219 15.980469 379.089844 10.917969 C 374.066406 13.753906 369.449219 14.359375 364.230469 14.515625 C 359.703125 14.652344 354.730469 14.453125 348.652344 15.074219 C 298.40625 20.246094 292.023438 75.707031 259.816406 107.148438 C 257.441406 109.453125 254.917969 111.597656 252.265625 113.570312 C 240.984375 121.988281 227.148438 128.003906 214.421875 132.875 C 193.828125 140.757812 174.246094 141.316406 154.921875 148.121094 C 140.738281 153.113281 126.324219 160.355469 114.671875 168.34375 C 111.859375 170.261719 109.128906 172.296875 106.488281 174.449219 C 99.652344 180.050781 95.164062 186.265625 90.824219 192.664062 C 86.34375 199.25 82.023438 206.03125 75.433594 212.503906 C 64.753906 223.003906 24.859375 215.566406 10.8125 225.304688 C 9.246094 226.386719 8.003906 227.6875 7.15625 229.25 C 14.820312 232.738281 19.941406 230.597656 28.757812 231.574219 C 29.914062 239.953125 10.566406 244.929688 13.425781 248.789062 Z M 317.835938 188.429688 C 318.4375 198.042969 324.007812 217.113281 328.925781 221.75 C 319.292969 224.09375 302.699219 220.21875 298.441406 213.414062 C 300.628906 203.585938 312.011719 194.605469 317.835938 188.429688 Z M 317.835938 188.429688 "/>
<path style=" stroke:none;fill-rule:nonzero;fill:rgb(0%,16.862746%,39.215687%);fill-opacity:1;" d="M 331.949219 35.886719 C 339.0625 42.070312 353.988281 37.105469 351.320312 24.800781 C 340.269531 23.886719 333.867188 27.640625 331.949219 35.886719 Z M 381.539062 21.503906 C 379.648438 25.480469 376.023438 30.605469 376.023438 40.71875 C 376.007812 42.457031 374.707031 43.648438 374.683594 40.96875 C 374.785156 31.082031 377.394531 26.808594 380.171875 21.191406 C 381.460938 18.890625 382.238281 19.839844 381.539062 21.503906 Z M 381.539062 21.503906 "/>
<path style=" stroke:none;fill-rule:nonzero;fill:rgb(0%,16.862746%,39.215687%);fill-opacity:1;" d="M 379.632812 20.007812 C 377.402344 23.800781 372.027344 30.71875 371.136719 40.796875 C 370.972656 42.523438 369.570312 43.59375 369.785156 40.921875 C 370.753906 31.085938 375.046875 24.925781 378.304688 19.574219 C 379.785156 17.394531 380.480469 18.410156 379.632812 20.007812 Z M 377.894531 18.027344 C 375.355469 21.613281 367.082031 29.921875 365.351562 39.890625 C 365.039062 41.597656 363.554688 42.550781 363.992188 39.90625 C 365.78125 30.179688 372.910156 22.535156 376.609375 17.480469 C 378.265625 15.429688 378.871094 16.503906 377.894531 18.027344 Z M 376.347656 15.8125 C 373.324219 19.007812 363.464844 29.601562 360.355469 39.226562 C 359.804688 40.871094 358.199219 41.605469 359.003906 39.046875 C 362.140625 29.671875 370.777344 19.574219 375.148438 15.089844 C 377.078125 13.296875 377.527344 14.441406 376.347656 15.8125 Z M 376.347656 15.8125 "/>
</g>
</svg>
